Duck Tales-Duck Of The West 720p(Hindi)Wall.e~Samrath


Complete name                            : Duck Tales-Duck Of The West(Hindi)Wall.e~Samrath.m4v
Format                                   : MPEG-4
Format profile                           : Base Media / Version 2
Codec ID                                 : mp42
File size                                : 408 MiB
Duration                                 : 22mn 48s
Overall bit rate mode                    : Variable
Overall bit rate                         : 2 501 Kbps
Encoded date                             : UTC 2012-01-01 08:34:39
Tagged date                              : UTC 2012-01-01 09:13:55
Writing application                      : HandBrake 0.9.5 2011010300

Video
ID                                       : 1
Format                                   : AVC
Format/Info                              : Advanced Video Codec
Format profile                           : High@L3.0
Format settings, CABAC                   : Yes
Format settings, ReFrames                : 4 frames
Codec ID                                 : avc1
Codec ID/Info                            : Advanced Video Coding
Duration                                 : 22mn 48s
Bit rate mode                            : Variable
Bit rate                                 : 2 130 Kbps
Width                                    : 720 pixels
Height                                   : 576 pixels
Display aspect ratio                     : 1.299
Frame rate mode                          : Constant
Frame rate                               : 25.000 fps
Standard                                 : PAL
Color space                              : YUV
Chroma subsampling                       : 4:2:0
Bit depth                                : 8 bits
Scan type                                : Progressive
Bits/(Pixel*Frame)                       : 0.205
Stream size                              : 348 MiB (85%)
Writing library                          : x264 core 112


Audio #1
ID                                       : 2
Format                                   : AAC
Format/Info                              : Advanced Audio Codec
Format profile                           : LC
Codec ID                                 : 40
Duration                                 : 22mn 48s
Bit rate mode                            : Variable
Bit rate                                 : 144 Kbps
Maximum bit rate                         : 183 Kbps
Channel(s)                               : 2 channels
Channel positions                        : Front: L R
Sampling rate                            : 48.0 KHz
Compression mode                         : Lossy
Stream size                              : 23.2 MiB (6%)
Language                                 : Hindi


Audio #2
ID                                       : 3
Format                                   : AC-3
Format/Info                              : Audio Coding 3
Mode extension                           : CM (complete main)
Codec ID                                 : ac-3
Duration                                 : 22mn 48s
Bit rate mode                            : Constant
Bit rate                                 : 224 Kbps
Channel(s)                               : 2 channels
Channel positions                        : Front: L R
Sampling rate                            : 48.0 KHz
Bit depth                                : 16 bits
Compression mode                         : Lossy
Stream size                              : 36.6 MiB (9%)
Language                                 : Hindi



Guys Comment For Video Quality Rest Are Upcoming


Also Comment On Facebook


